<?xml version="1.0" encoding="utf-8"?>
<!-- Generator: Adobe Illustrator 27.7.0, SVG Export Plug-In . SVG Version: 6.00 Build 0)  -->
<svg version="1.1" id="_x31_0" xmlns="http://www.w3.org/2000/svg" xmlns:xlink="http://www.w3.org/1999/xlink" x="0px" y="0px"
	 viewBox="0 0 512 512" style="enable-background:new 0 0 512 512;" xml:space="preserve">
<style type="text/css">
	.st0{fill:#FFFFFF;}
</style>
<g>
	<path class="st0" d="M363,0H149C69.1,0,4.3,64.8,4.3,144.7v222.6C4.3,447.2,69.1,512,149,512h214c79.9,0,144.7-64.8,144.7-144.7
		V144.7C507.7,64.8,442.9,0,363,0z M55.7,144.7c0-51.5,41.9-93.3,93.3-93.3h214c51.5,0,93.3,41.9,93.3,93.3v222.6
		c0,51.5-41.9,93.3-93.3,93.3H149c-51.5,0-93.3-41.9-93.3-93.3C55.7,367.3,55.7,144.7,55.7,144.7z"/>
	<path class="st0" d="M256,387.9c72.7,0,131.9-59.1,131.9-131.9S328.7,124.1,256,124.1S124.1,183.3,124.1,256S183.3,387.9,256,387.9
		z M256,165.2c50,0,90.8,40.7,90.8,90.8S306,346.8,256,346.8s-90.8-40.7-90.8-90.8S206,165.2,256,165.2z"/>
	<ellipse class="st0" cx="391.7" cy="120.3" rx="29.5" ry="29.5"/>
</g>
</svg>
