<?xml version="1.0" encoding="utf-8"?>
<!-- Generator: Adobe Illustrator 27.5.0, SVG Export Plug-In . SVG Version: 6.00 Build 0)  -->
<svg version="1.1" id="レイヤー_1" xmlns="http://www.w3.org/2000/svg" xmlns:xlink="http://www.w3.org/1999/xlink" x="0px"
	 y="0px" viewBox="0 0 16 15" style="enable-background:new 0 0 16 15;" xml:space="preserve">
<style type="text/css">
	.st0{fill:#FFFFFF;}
</style>
<path class="st0" d="M15.9,8C16,7.9,16,7.7,16,7.5v0c0,0,0,0,0,0c0-0.2,0-0.4-0.1-0.5c0,0,0,0,0,0c-0.1-0.2-0.2-0.4-0.3-0.5l-6-6
	C9-0.1,8-0.1,7.4,0.4C6.9,1,6.9,2,7.4,2.6L10.9,6H1.5C0.7,6,0,6.7,0,7.5S0.7,9,1.5,9h9.4l-3.4,3.4c-0.6,0.6-0.6,1.5,0,2.1
	C7.7,14.9,8.1,15,8.5,15s0.8-0.1,1.1-0.4l6-6c0,0,0,0,0,0C15.7,8.4,15.8,8.3,15.9,8C15.9,8.1,15.9,8.1,15.9,8z"/>
</svg>
