<?xml version="1.0" encoding="utf-8"?>
<!-- Generator: Adobe Illustrator 27.5.0, SVG Export Plug-In . SVG Version: 6.00 Build 0)  -->
<svg version="1.1" id="cart" xmlns="http://www.w3.org/2000/svg" xmlns:xlink="http://www.w3.org/1999/xlink" x="0px" y="0px"
	 viewBox="0 0 142.1 133.6" style="enable-background:new 0 0 142.1 133.6;" xml:space="preserve">
<style type="text/css">
	.st0{fill:#364756;}
</style>
<g>
	<path class="st0" d="M30.9,109.5c-6.6,0-12,5.4-12,12c0,6.6,5.4,12,12,12c6.6,0,12-5.4,12-12C42.9,114.9,37.5,109.5,30.9,109.5z
		 M30.9,126.6c-2.8,0-5-2.3-5-5c0-2.8,2.3-5,5-5s5,2.3,5,5C35.9,124.3,33.7,126.6,30.9,126.6z"/>
	<path class="st0" d="M81.6,109.5c-6.6,0-12,5.4-12,12c0,6.6,5.4,12,12,12c6.6,0,12-5.4,12-12C93.6,114.9,88.2,109.5,81.6,109.5z
		 M81.6,126.6c-2.8,0-5-2.3-5-5c0-2.8,2.3-5,5-5c2.8,0,5,2.3,5,5C86.6,124.3,84.4,126.6,81.6,126.6z"/>
	<path class="st0" d="M142,2.8c-0.4-1.9-2.2-3.1-4.1-2.8l-25.8,5c-1.4,0.3-2.5,1.3-2.8,2.7L106.2,23H3.5c-1.1,0-2.1,0.5-2.7,1.3
		c-0.7,0.8-0.9,1.9-0.7,3l13,58.2c0.4,1.6,1.8,2.7,3.4,2.7h76L90.2,99H20.8c-1.9,0-3.5,1.6-3.5,3.5c0,1.9,1.6,3.5,3.5,3.5h72.3
		c1.7,0,3.1-1.2,3.4-2.8l15.9-76c0,0,0,0,0,0l3.3-15.7l23.5-4.5C141.1,6.6,142.4,4.7,142,2.8z M19.3,81.2L7.9,30h96.8L94,81.2H19.3z
		"/>
</g>
</svg>
